<svg width="24" height="24" viewBox="0 0 24 24" fill="none" xmlns="http://www.w3.org/2000/svg">
<path d="M12.5775 20.5797L20.3938 12.7634C22.3144 10.8428 22.5977 7.68323 20.7802 5.66488C20.325 5.15786 19.7712 4.7489 19.1527 4.46297C18.5341 4.17704 17.8638 4.02013 17.1827 4.00181C16.5015 3.9835 15.8237 4.10416 15.1907 4.35643C14.5577 4.60871 13.9828 4.98731 13.5009 5.46913L12.0318 6.93825L10.7634 5.66981C8.84283 3.74926 5.68323 3.46591 3.66488 5.2834C3.15785 5.73866 2.7489 6.29244 2.46297 6.91096C2.17704 7.52949 2.02013 8.19979 2.00181 8.88096C1.9835 9.56213 2.10415 10.2399 2.35643 10.8729C2.6087 11.5059 2.98731 12.0808 3.46913 12.5627L11.4862 20.5797C11.6309 20.7244 11.8272 20.8057 12.0318 20.8057C12.2365 20.8057 12.4328 20.7244 12.5775 20.5797Z" stroke="#333F48" stroke-width="1.5" stroke-linecap="round" stroke-linejoin="round"/>
</svg>
