<svg width="24" height="24" viewBox="0 0 24 24" fill="none" xmlns="http://www.w3.org/2000/svg">
<path d="M13.875 12L3.75 12" stroke="#323232" stroke-width="1.5" stroke-linecap="round" stroke-linejoin="round"/>
<path d="M20.25 12L17.625 12" stroke="#323232" stroke-width="1.5" stroke-linecap="round" stroke-linejoin="round"/>
<path d="M13.875 12C13.875 13.0355 14.7145 13.875 15.75 13.875C16.7855 13.875 17.625 13.0355 17.625 12C17.625 10.9645 16.7855 10.125 15.75 10.125C14.7145 10.125 13.875 10.9645 13.875 12Z" stroke="#323232" stroke-width="1.5" stroke-linecap="round" stroke-linejoin="round"/>
<path d="M6.375 18.75L3.75 18.7501" stroke="#323232" stroke-width="1.5" stroke-linecap="round" stroke-linejoin="round"/>
<path d="M20.25 18.7501L10.125 18.75" stroke="#323232" stroke-width="1.5" stroke-linecap="round" stroke-linejoin="round"/>
<path d="M6.375 18.75C6.375 19.7855 7.21447 20.625 8.25 20.625C9.28553 20.625 10.125 19.7855 10.125 18.75C10.125 17.7145 9.28553 16.875 8.25 16.875C7.21447 16.875 6.375 17.7145 6.375 18.75Z" stroke="#323232" stroke-width="1.5" stroke-linecap="round" stroke-linejoin="round"/>
<path d="M9.375 5.25007L3.75 5.25" stroke="#323232" stroke-width="1.5" stroke-linecap="round" stroke-linejoin="round"/>
<path d="M20.25 5.25L13.125 5.25007" stroke="#323232" stroke-width="1.5" stroke-linecap="round" stroke-linejoin="round"/>
<path d="M9.375 5.25C9.375 6.28553 10.2145 7.125 11.25 7.125C12.2855 7.125 13.125 6.28553 13.125 5.25C13.125 4.21447 12.2855 3.375 11.25 3.375C10.2145 3.375 9.375 4.21447 9.375 5.25Z" stroke="#323232" stroke-width="1.5" stroke-linecap="round" stroke-linejoin="round"/>
</svg>
